<svg width="18" height="18" viewBox="0 0 18 18" fill="none" xmlns="http://www.w3.org/2000/svg">
<path d="M16 9.75C16.4142 9.75 16.75 9.41421 16.75 9C16.75 8.58579 16.4142 8.25 16 8.25L16 9.75ZM1.46967 8.46967C1.17678 8.76256 1.17678 9.23744 1.46967 9.53033L6.24264 14.3033C6.53553 14.5962 7.01041 14.5962 7.3033 14.3033C7.59619 14.0104 7.59619 13.5355 7.3033 13.2426L3.06066 9L7.3033 4.75736C7.59619 4.46447 7.59619 3.98959 7.3033 3.6967C7.01041 3.40381 6.53553 3.40381 6.24264 3.6967L1.46967 8.46967ZM16 8.25L2 8.25L2 9.75L16 9.75L16 8.25Z" fill="#A1A1A1"/>
</svg>
