<svg width="21" height="19" viewBox="0 0 21 19" fill="none" xmlns="http://www.w3.org/2000/svg">
<path d="M0.407227 7.28787V6.59881C0.407227 4.91491 1.16985 3.55445 2.69508 2.51742C4.22032 1.48042 6.82188 0.961914 10.4998 0.961914C14.1777 0.961914 16.7792 1.48042 18.3045 2.51742C19.8297 3.55445 20.5923 4.91491 20.5923 6.59881V7.28787H0.407227ZM0.407227 11.7057V10.8565C1.03785 10.8565 1.54644 10.6611 1.93301 10.2702C2.31956 9.87934 2.94526 9.6839 3.8101 9.6839C4.66051 9.6839 5.25802 9.87934 5.60265 10.2702C5.94725 10.6611 6.45715 10.8565 7.13234 10.8565C7.80754 10.8565 8.32313 10.6611 8.6791 10.2702C9.03507 9.87934 9.64293 9.6839 10.5027 9.6839C11.3624 9.6839 11.969 9.87934 12.3224 10.2702C12.6758 10.6611 13.192 10.8565 13.871 10.8565C14.55 10.8565 15.053 10.6611 15.38 10.2702C15.7071 9.87934 16.2959 9.6839 17.1465 9.6839C18.0115 9.6839 18.6396 9.87934 19.0308 10.2702C19.4221 10.6611 19.9426 10.8565 20.5923 10.8565V11.7057C19.7449 11.7057 19.1393 11.5102 18.7755 11.1194C18.4117 10.7285 17.8903 10.5331 17.2114 10.5331C16.5324 10.5331 16.0186 10.7285 15.6699 11.1194C15.3212 11.5102 14.7216 11.7057 13.871 11.7057C13.0204 11.7057 12.415 11.5102 12.0547 11.1194C11.6945 10.7285 11.1768 10.5331 10.5014 10.5331C9.82603 10.5331 9.30824 10.7285 8.94803 11.1194C8.58781 11.5102 7.98215 11.7057 7.13107 11.7057C6.27997 11.7057 5.68339 11.5102 5.34134 11.1194C4.99928 10.7285 4.48877 10.5331 3.80979 10.5331C3.13083 10.5331 2.60658 10.7285 2.23704 11.1194C1.8675 11.5102 1.25756 11.7057 0.407227 11.7057ZM1.94392 18.4708C1.52364 18.4708 1.16245 18.3198 0.860349 18.0177C0.558267 17.7156 0.407227 17.3541 0.407227 16.9332V14.1579H20.5923V16.9332C20.5923 17.3541 20.4413 17.7156 20.1392 18.0177C19.8371 18.3198 19.4759 18.4708 19.0556 18.4708H1.94392Z" fill="#3F3422"/>
</svg>
