<svg width="251" height="93" viewBox="0 0 251 93" fill="none" xmlns="http://www.w3.org/2000/svg">
<path d="M64.2332 58.5835C64.1852 58.4635 64.1252 58.4035 64.0532 58.4035L64.0172 58.3315C63.9932 58.3315 63.9572 58.3195 63.9092 58.2955C63.8852 58.2475 63.8612 58.2235 63.8372 58.2235L60.9932 54.9835C60.9692 54.9355 60.8732 54.8155 60.7052 54.6235C60.5372 54.4315 60.4052 54.2875 60.3092 54.1915C60.0932 53.9755 59.9492 53.8195 59.8772 53.7235C59.7092 53.6035 59.6012 53.5435 59.5532 53.5435C59.4092 53.5435 59.3372 53.6275 59.3372 53.7955V54.5515C59.2892 54.8155 59.2652 55.1995 59.2652 55.7035C59.2412 55.9915 59.2292 56.3755 59.2292 56.8555C59.2052 57.0955 59.1932 57.3475 59.1932 57.6115V57.8635V58.1875C59.1932 58.5235 59.1572 58.6915 59.0852 58.6915H58.9772H58.7972H58.6172H58.4732C57.7772 58.7635 56.7452 58.7995 55.3772 58.7995H52.2452H51.7052H51.0572H50.5172H50.2652L48.8972 58.4755L48.7892 58.2235V57.8635C48.7652 57.7195 48.7532 57.4195 48.7532 56.9635C48.7292 56.4835 48.7172 55.6075 48.7172 54.3355C48.7172 53.7355 48.6932 53.2915 48.6452 53.0035V51.9235C48.5732 48.2755 48.5372 44.5435 48.5372 40.7275V39.8635C48.4892 39.6235 48.4652 39.3595 48.4652 39.0715V38.9275V38.6755V38.4235C48.4652 38.3755 48.4892 38.3395 48.5372 38.3155C48.5852 38.1235 48.6692 37.9915 48.7892 37.9195C48.9332 37.8235 49.1132 37.7515 49.3292 37.7035C49.4252 37.7035 49.5092 37.7155 49.5812 37.7395C49.6772 37.7635 49.7852 37.7755 49.9052 37.7755C50.2412 37.8235 50.4452 37.8475 50.5172 37.8475H56.6372L59.4092 37.8835C59.4572 37.8835 59.4932 37.8955 59.5172 37.9195C59.5412 37.9435 59.5532 37.9795 59.5532 38.0275C59.6492 38.2675 59.6972 38.5195 59.6972 38.7835C59.7212 38.9035 59.7332 39.0715 59.7332 39.2875C59.7332 40.3195 59.7212 41.0875 59.6972 41.5915C59.6012 42.2395 59.5532 42.8875 59.5532 43.5355C59.8412 43.5355 60.0692 43.4755 60.2372 43.3555C60.2612 43.3315 60.2972 43.3075 60.3452 43.2835C60.3932 43.2595 60.4292 43.2235 60.4532 43.1755C60.5012 43.1035 60.6092 43.0075 60.7772 42.8875L61.3172 42.3475C62.1572 41.6035 62.5412 41.2555 62.4692 41.3035L65.3492 38.6035C65.6132 38.3875 65.8412 38.1955 66.0332 38.0275C66.2492 37.8595 66.4292 37.7155 66.5732 37.5955C66.9812 37.3075 67.2332 37.1635 67.3292 37.1635C67.4492 37.1635 67.5812 37.2835 67.7252 37.5235C67.9652 37.7635 68.1092 37.9195 68.1572 37.9915C68.3732 38.3995 68.6732 38.7955 69.0572 39.1795C69.4412 39.5395 69.6812 39.7675 69.7772 39.8635C70.1852 40.3195 70.4972 40.6915 70.7132 40.9795C70.9292 41.2675 71.1092 41.5915 71.2532 41.9515V42.0235C71.2532 42.3835 70.9772 42.8395 70.4252 43.3915C70.2812 43.5355 70.1492 43.6555 70.0292 43.7515C69.9332 43.8475 69.8492 43.9315 69.7772 44.0035L69.2372 44.5435C69.1652 44.5435 69.0692 44.6275 68.9492 44.7955L67.7252 45.8035C67.2692 46.2115 66.8732 46.5475 66.5372 46.8115L66.2492 47.0635L65.9972 47.2435C65.8052 47.3155 65.6852 47.3755 65.6372 47.4235C65.6372 47.4715 65.6252 47.5195 65.6012 47.5675C65.5772 47.6155 65.5652 47.6755 65.5652 47.7475C65.5652 47.9155 65.6132 48.0835 65.7092 48.2515C65.8292 48.3955 65.9492 48.5395 66.0692 48.6835C66.1412 48.7795 66.2972 48.8995 66.5372 49.0435C66.5372 49.0435 66.6572 49.1635 66.8972 49.4035L67.5092 49.9435L68.6972 50.9875L69.7412 51.9595L70.9652 53.1475C71.3732 53.5795 71.6612 53.9275 71.8292 54.1915C72.0212 54.4315 72.1172 54.6355 72.1172 54.8035C72.1172 55.0435 72.0332 55.2235 71.8652 55.3435C71.4812 55.7035 71.1452 55.9795 70.8572 56.1715C70.3772 56.5075 70.0172 56.7715 69.7772 56.9635C68.8892 57.6595 68.2292 58.1275 67.7972 58.3675C67.7012 58.3915 67.3652 58.5355 66.7892 58.7995L66.2132 59.0875C66.0452 59.1835 65.9492 59.2315 65.9252 59.2315C65.6372 59.3755 65.4092 59.4475 65.2412 59.4475C65.1212 59.4475 65.0252 59.4115 64.9532 59.3395L64.2332 58.5835ZM82.8084 59.2315C81.8484 59.2795 81.0324 59.2555 80.3604 59.1595C79.8084 59.0395 79.3044 58.8715 78.8484 58.6555C78.3924 58.4395 77.9724 58.1035 77.5884 57.6475C76.8204 56.6875 76.3044 55.4275 76.0404 53.8675C75.8484 52.5955 75.7764 51.2035 75.8244 49.6915V48.1075C75.8244 47.8915 75.8364 47.7235 75.8604 47.6035V46.8835V46.2355V45.8755L75.9684 45.6235C75.9684 45.5995 75.9684 45.5635 75.9684 45.5155C75.9924 45.4675 76.0044 45.3835 76.0044 45.2635C76.0764 44.3995 76.1124 43.7035 76.1124 43.1755L76.1844 41.8435C76.2084 41.2435 76.2204 40.5475 76.2204 39.7555C76.2204 39.4435 76.2084 39.2275 76.1844 39.1075C76.1364 38.8195 76.1124 38.5915 76.1124 38.4235C76.1124 38.0635 76.4844 37.8835 77.2284 37.8835H77.7324C78.0204 37.8835 78.2124 37.8595 78.3084 37.8115L82.7004 37.8835C82.7004 37.8835 82.7124 37.9075 82.7364 37.9555C82.7844 37.9795 82.8204 37.9915 82.8444 37.9915L83.1324 37.8835C84.3804 37.8835 85.1844 38.0035 85.5444 38.2435C85.7844 38.4115 85.9524 38.6635 86.0484 38.9995C86.1684 39.3355 86.2284 39.7915 86.2284 40.3675C86.2284 40.7515 86.2524 41.2795 86.3004 41.9515C86.3484 42.2875 86.3724 42.8155 86.3724 43.5355V43.8955C86.3244 44.5915 86.2764 45.7315 86.2284 47.3155L86.1924 49.0435V50.5915C86.1444 50.8795 86.1204 51.2635 86.1204 51.7435V52.2835V52.8235C86.0964 53.1595 86.1444 53.6275 86.2644 54.2275C86.3844 54.4195 86.4924 54.5155 86.5884 54.5155C86.7324 54.5155 87.2724 54.3355 88.2084 53.9755L89.0724 53.5435C89.3124 53.4475 89.4324 53.3515 89.4324 53.2555V41.4115C89.3604 40.9075 89.3244 40.5115 89.3244 40.2235C89.3004 40.1035 89.2884 39.9235 89.2884 39.6835V39.1435V38.7835C89.2884 38.4955 89.3484 38.2915 89.4684 38.1715C89.5164 38.0995 89.6364 38.0635 89.8284 38.0635C89.8764 38.0635 89.9244 38.0875 89.9724 38.1355C90.0204 38.1595 90.0444 38.1955 90.0444 38.2435V38.3155C90.2844 38.2195 90.8004 38.1355 91.5924 38.0635C92.2404 37.9915 92.9604 37.9555 93.7524 37.9555H94.6524H95.2284H95.9124L99.6924 38.0635C99.7404 38.0635 99.7764 38.0755 99.8004 38.0995C99.8484 38.1235 99.8724 38.1475 99.8724 38.1715C99.8964 38.1715 99.9084 38.1835 99.9084 38.2075C99.9084 38.2315 99.9084 38.2435 99.9084 38.2435V38.4235C99.8844 38.4235 99.8724 38.4595 99.8724 38.5315L100.052 38.4955C100.076 38.4475 100.112 38.4235 100.16 38.4235C100.232 38.4235 100.268 38.4835 100.268 38.6035C100.268 42.8035 100.244 46.2955 100.196 49.0795C100.172 51.8395 100.076 54.6355 99.9084 57.4675C99.9084 57.5875 99.8124 57.7675 99.6204 58.0075C99.5244 58.1275 99.4404 58.2235 99.3684 58.2955C99.3444 58.3435 99.3084 58.3795 99.2604 58.4035C99.2124 58.4275 99.1764 58.4515 99.1524 58.4755C99.1284 58.4515 99.0444 58.4275 98.9004 58.4035C98.7564 58.3555 98.6364 58.3315 98.5404 58.3315L98.4324 58.4035C98.3844 58.4515 98.3364 58.4755 98.2884 58.4755C97.3284 58.6435 95.8164 58.7275 93.7524 58.7275H92.1684C91.5684 58.7275 91.0404 58.6795 90.5844 58.5835C90.4164 58.4635 90.2364 58.1635 90.0444 57.6835C90.0204 57.5155 89.9724 57.3715 89.9004 57.2515C89.8524 57.1315 89.7924 57.0715 89.7204 57.0715C89.5284 57.0715 89.2284 57.2035 88.8204 57.4675C88.7724 57.5155 88.7004 57.5755 88.6044 57.6475C88.5324 57.6955 88.4604 57.7555 88.3884 57.8275C88.1964 57.9715 88.0644 58.0915 87.9924 58.1875C87.3444 58.5475 86.5764 58.8115 85.6884 58.9795C85.0884 59.1235 84.5364 59.1955 84.0324 59.1955C83.4804 59.1955 83.0724 59.2075 82.8084 59.2315ZM107.641 58.7995H107.065H106.525H106.237L104.833 58.4035L104.761 58.1875C104.737 58.1875 104.725 58.0675 104.725 57.8275C104.725 57.5155 104.713 57.2635 104.689 57.0715L104.653 55.7035C104.629 55.4155 104.617 54.9595 104.617 54.3355C104.617 53.7355 104.605 53.2915 104.581 53.0035V51.9235C104.437 50.4115 104.365 48.8515 104.365 47.2435V46.9555V46.4155C104.365 46.1275 104.377 45.9235 104.401 45.8035V45.5155V45.2635C104.377 45.1915 104.365 45.0715 104.365 44.9035V44.5075V44.2915V43.9315V43.3555C104.365 43.0675 104.377 42.8635 104.401 42.7435V42.3835L104.437 42.2035V41.7355C104.461 41.4955 104.473 41.1715 104.473 40.7635C104.473 40.4515 104.461 40.1755 104.437 39.9355L104.401 39.1075L104.365 38.9635C104.293 38.9155 104.293 38.8795 104.365 38.8555C104.461 38.4715 104.761 38.1955 105.265 38.0275C105.505 37.9315 105.901 37.8835 106.453 37.8835C106.861 37.8835 107.929 37.8475 109.657 37.7755C110.521 37.7275 111.061 37.7035 111.277 37.7035C111.637 37.6795 112.069 37.6675 112.573 37.6675C112.813 37.6915 112.981 37.7395 113.077 37.8115C113.173 37.8595 113.257 37.9555 113.329 38.0995C113.425 38.2435 113.497 38.3515 113.545 38.4235L114.265 39.4675C114.241 39.4435 114.541 39.8755 115.165 40.7635C115.741 41.6995 116.437 42.7555 117.253 43.9315C117.373 44.1235 117.517 44.3395 117.685 44.5795C117.853 44.8195 118.033 45.0955 118.225 45.4075V44.1475C118.249 43.8115 118.261 43.3315 118.261 42.7075C118.261 41.8915 118.285 40.9795 118.333 39.9715C118.333 39.7795 118.345 39.6115 118.369 39.4675C118.393 39.2995 118.405 39.1675 118.405 39.0715C118.405 38.8315 118.417 38.7115 118.441 38.7115C118.537 38.5675 118.705 38.4115 118.945 38.2435C119.233 38.0515 119.533 37.9675 119.845 37.9915H121.645H122.005C122.365 37.9915 122.665 38.0035 122.905 38.0275H123.985C124.225 38.0515 124.585 38.0635 125.065 38.0635H125.857H126.217C126.697 38.0635 127.057 38.1475 127.297 38.3155C127.441 38.4115 127.537 38.5435 127.585 38.7115C127.633 38.8555 127.657 39.0835 127.657 39.3955C127.657 39.7075 127.645 39.9715 127.621 40.1875C127.597 40.4275 127.585 40.7155 127.585 41.0515V41.3035C127.609 41.3755 127.621 41.4835 127.621 41.6275V42.5635L127.585 46.7035V50.7715V51.7435C127.585 54.3355 127.561 55.9795 127.513 56.6755L127.405 57.8635C127.285 58.4155 127.117 58.7035 126.901 58.7275C126.853 58.7275 126.781 58.7395 126.685 58.7635C126.613 58.7875 126.529 58.7995 126.433 58.7995C125.569 58.7995 124.933 58.7755 124.525 58.7275H122.653H120.781H120.313C120.241 58.7515 120.145 58.7635 120.025 58.7635C119.737 58.7635 119.437 58.7035 119.125 58.5835C118.933 58.5355 118.729 58.4035 118.513 58.1875L115.345 53.7235C115.225 53.5555 114.997 53.2795 114.661 52.8955L114.193 52.4635C114.073 52.3435 113.977 52.2835 113.905 52.2835C113.833 52.2835 113.773 52.3195 113.725 52.3915C113.677 52.4395 113.653 52.4875 113.653 52.5355V53.1475C113.629 53.3395 113.617 53.6395 113.617 54.0475V55.0915C113.593 55.3555 113.581 55.7155 113.581 56.1715V57.0355V57.5755C113.557 57.6235 113.545 57.6955 113.545 57.7915C113.545 57.8155 113.509 58.0075 113.437 58.3675C113.389 58.4635 113.353 58.5235 113.329 58.5475C113.305 58.5715 113.221 58.5835 113.077 58.5835C113.029 58.5595 112.981 58.5475 112.933 58.5475C112.909 58.5475 112.885 58.5475 112.861 58.5475C110.965 58.7155 109.393 58.7995 108.145 58.7995H107.641ZM137.51 58.6915C136.598 58.6675 135.026 58.6555 132.794 58.6555C132.458 58.6555 132.23 58.4395 132.11 58.0075C132.038 57.7675 132.002 57.3475 132.002 56.7475C132.002 55.6675 131.978 54.7195 131.93 53.9035C131.93 53.1595 131.906 51.8035 131.858 49.8355L131.822 45.5155V38.7115C131.822 38.5435 131.906 38.3635 132.074 38.1715C132.266 37.9795 132.446 37.8835 132.614 37.8835L134.702 37.9195C135.038 37.9435 135.53 37.9555 136.178 37.9555C136.874 37.9795 137.738 37.9915 138.77 37.9915C140.306 37.9915 141.506 37.9795 142.37 37.9555C143.21 37.9075 144.614 37.8835 146.582 37.8835C147.926 37.8835 149.162 38.1235 150.29 38.6035C151.706 39.2035 152.834 40.1395 153.674 41.4115C154.634 42.8995 155.114 44.8315 155.114 47.2075C155.114 49.3435 154.874 51.1315 154.394 52.5715C153.938 54.0115 153.194 55.1755 152.162 56.0635C151.106 56.9755 149.714 57.6475 147.986 58.0795C146.282 58.4875 144.146 58.6915 141.578 58.6915H137.51ZM141.83 54.6235C142.358 54.6235 142.706 54.5995 142.874 54.5515C143.042 54.5035 143.162 54.4435 143.234 54.3715C143.594 54.0115 143.93 52.9435 144.242 51.1675C144.506 49.5115 144.638 47.9635 144.638 46.5235V45.9475C144.638 45.1075 144.578 44.3035 144.458 43.5355C144.362 42.5995 144.17 41.8315 143.882 41.2315C143.714 40.9675 143.498 40.8355 143.234 40.8355C143.018 40.8355 142.754 40.8955 142.442 41.0155L142.19 41.1235C142.19 41.6755 142.166 42.9115 142.118 44.8315L142.082 47.0635C142.082 47.5435 142.07 47.9155 142.046 48.1795L142.01 49.2955L141.83 54.6235ZM160.226 58.5475C160.178 58.5475 160.142 58.4995 160.118 58.4035C159.95 58.1875 159.83 57.9235 159.758 57.6115C159.686 57.4915 159.626 57.3355 159.578 57.1435C159.362 56.7115 159.206 56.1115 159.11 55.3435C159.014 54.2395 158.966 53.3635 158.966 52.7155C158.942 52.4275 158.93 52.0315 158.93 51.5275V50.6635C158.93 49.9435 158.918 49.3795 158.894 48.9715C158.87 48.5395 158.858 47.6875 158.858 46.4155C158.858 43.0075 158.93 40.3795 159.074 38.5315C159.074 38.2435 159.482 38.0275 160.298 37.8835H161.378H162.278C163.646 37.8835 164.666 37.9075 165.338 37.9555C166.346 38.0275 167.366 38.0635 168.398 38.0635C168.638 38.0635 168.818 38.0515 168.938 38.0275H169.478L169.658 38.1715C170.45 38.0035 171.266 37.8955 172.106 37.8475C172.946 37.7995 173.966 37.7755 175.166 37.7755C175.214 37.7755 175.274 37.8115 175.346 37.8835H176.498C176.69 37.8835 176.834 37.9915 176.93 38.2075C177.05 38.4235 177.146 38.7355 177.218 39.1435C177.314 39.4555 177.386 39.8395 177.434 40.2955C177.53 40.8955 177.614 41.2915 177.686 41.4835C177.686 42.1555 177.566 42.4915 177.326 42.4915C177.302 42.4915 177.266 42.4555 177.218 42.3835L177.074 42.3475C176.954 42.3235 176.822 42.3355 176.678 42.3835C176.534 42.4555 176.378 42.4915 176.21 42.4915C176.066 42.4915 175.946 42.4555 175.85 42.3835C175.802 42.3595 175.694 42.3475 175.526 42.3475C175.31 42.3475 175.058 42.3835 174.77 42.4555C174.674 42.4795 174.482 42.5155 174.194 42.5635C173.93 42.6115 173.618 42.6355 173.258 42.6355C172.226 42.6355 171.482 42.6595 171.026 42.7075C170.762 42.7315 170.51 42.8035 170.27 42.9235V42.8515C170.174 42.8515 170.09 42.9715 170.018 43.2115C169.85 43.6195 169.742 44.1835 169.694 44.9035C169.67 45.1195 169.658 45.3595 169.658 45.6235C169.658 45.8875 169.694 46.0675 169.766 46.1635C169.862 46.2595 170.006 46.3075 170.198 46.3075C170.342 46.3075 170.462 46.2595 170.558 46.1635C170.606 46.1635 170.666 46.1755 170.738 46.1995C170.81 46.2235 170.87 46.2595 170.918 46.3075H173.978C174.002 46.2595 174.038 46.2235 174.086 46.1995C174.134 46.1755 174.182 46.1635 174.23 46.1635C174.47 46.1635 174.65 46.1995 174.77 46.2715C174.914 46.3435 175.202 46.4155 175.634 46.4875C175.874 46.4875 176.042 46.5595 176.138 46.7035C176.258 46.8715 176.318 47.0275 176.318 47.1715L177.074 49.5475C177.146 49.9315 176.786 50.1835 175.994 50.3035C175.538 50.3995 174.662 50.4475 173.366 50.4475H171.818H170.738C170.402 50.4475 170.15 50.4715 169.982 50.5195C169.814 50.5435 169.706 50.6275 169.658 50.7715C169.562 50.8915 169.514 51.0835 169.514 51.3475V51.4915C169.514 51.6115 169.526 51.6955 169.55 51.7435L169.514 52.5355C169.49 52.7035 169.478 52.9555 169.478 53.2915V53.6515V53.9755V54.1915C170.558 54.1915 171.662 54.1555 172.79 54.0835C173.894 54.0115 174.986 53.9755 176.066 53.9755C176.138 53.9755 176.198 54.0355 176.246 54.1555C176.294 54.2515 176.318 54.3715 176.318 54.5155C176.366 54.6595 176.39 54.8155 176.39 54.9835C176.438 55.3435 176.51 55.6795 176.606 55.9915L176.858 57.0355V57.7555V57.8635V58.1515L176.57 58.4035H176.318H176.21C175.946 58.4035 175.778 58.3915 175.706 58.3675C175.634 58.3195 175.55 58.2955 175.454 58.2955C175.406 58.3195 175.334 58.3555 175.238 58.4035C175.142 58.4515 175.058 58.4995 174.986 58.5475V58.3675L174.554 58.4035H174.014C173.918 58.4035 173.846 58.3795 173.798 58.3315L173.51 58.2955C172.622 58.2955 171.998 58.3795 171.638 58.5475H160.226ZM198.271 59.0875C197.215 58.0555 196.315 57.0115 195.571 55.9555C195.043 55.2595 194.227 54.0235 193.123 52.2475L192.511 51.2755C192.487 51.2515 192.463 51.2395 192.439 51.2395C192.439 51.2155 192.439 51.2035 192.439 51.2035H192.259L192.115 51.2755C192.091 51.5875 192.079 52.4275 192.079 53.7955C192.079 54.6835 192.031 55.7275 191.935 56.9275L191.899 58.0075C191.803 58.2715 191.743 58.4035 191.719 58.4035H191.467H191.359C188.719 58.5955 186.799 58.6915 185.599 58.6915H185.059H184.375C184.111 58.6915 183.919 58.6795 183.799 58.6555H183.547L182.431 58.2955L182.359 58.0435C182.311 58.0435 182.275 57.9955 182.251 57.8995C182.251 57.8035 182.251 57.7315 182.251 57.6835C182.179 56.6755 182.119 55.9435 182.071 55.4875C181.975 54.1915 181.915 53.2435 181.891 52.6435C181.843 52.0675 181.819 51.6955 181.819 51.5275L181.639 49.5475L181.603 48.4675C181.579 48.2515 181.567 47.9515 181.567 47.5675V47.2435C181.615 47.1235 181.639 46.9315 181.639 46.6675V46.0555C181.663 45.9595 181.675 45.8515 181.675 45.7315L181.639 45.4435V45.0835C181.639 44.9155 181.615 44.7835 181.567 44.6875V44.4715L181.603 43.5715C181.627 43.4035 181.639 43.1515 181.639 42.8155C181.687 42.0955 181.711 41.4115 181.711 40.7635V40.4035C181.687 40.3315 181.675 40.1755 181.675 39.9355V39.4315V39.0715C181.603 38.9995 181.567 38.9275 181.567 38.8555C181.567 38.5195 181.867 38.2795 182.467 38.1355C182.779 38.0395 183.223 37.9915 183.799 37.9915C189.415 37.9915 193.615 38.1835 196.399 38.5675C199.135 38.9515 201.055 39.6115 202.159 40.5475C202.639 41.0035 202.975 41.5435 203.167 42.1675C203.383 42.7675 203.491 43.4875 203.491 44.3275C203.491 45.6715 203.107 46.7995 202.339 47.7115C201.835 48.2155 201.247 48.6355 200.575 48.9715C200.719 49.3315 201.139 50.0515 201.835 51.1315C201.979 51.2995 202.111 51.4795 202.231 51.6715C202.375 51.8635 202.543 52.0675 202.735 52.2835C203.191 52.9075 203.719 53.5915 204.319 54.3355C204.343 54.4315 204.439 54.6355 204.607 54.9475C204.727 54.9955 204.787 55.0555 204.787 55.1275C204.811 55.1755 204.799 55.2475 204.751 55.3435C204.559 55.6315 203.995 56.0515 203.059 56.6035C202.939 56.7235 202.795 56.8435 202.627 56.9635C202.147 57.3475 201.487 57.7435 200.647 58.1515C199.879 58.5595 199.219 58.8475 198.667 59.0155C198.451 59.1355 198.319 59.1595 198.271 59.0875ZM191.719 46.4155C192.031 46.4155 192.451 46.3555 192.979 46.2355C193.483 46.0915 193.843 45.9475 194.059 45.8035C194.419 45.5875 194.731 45.3475 194.995 45.0835C195.259 44.7715 195.391 44.4115 195.391 44.0035C195.391 43.3315 195.187 42.7915 194.779 42.3835C194.419 42.0955 193.975 41.9515 193.447 41.9515H191.899C191.899 42.2635 191.875 42.7555 191.827 43.4275L191.791 44.1835C191.743 44.6635 191.719 45.4075 191.719 46.4155Z" fill="#E84649"/>
<path d="M90.8636 77.8758C142.994 98.8322 268.072 95.137 246.531 34.3225C233.128 -3.5189 126.518 22.7354 78.8923 12.5447C24.2815 0.8595 -17.6291 13.0763 11.5813 64.5975C34.9005 105.728 44.4582 59.2207 90.8636 77.8758ZM59.2567 83.3169C120.931 65.3376 177.296 94.6014 197.639 90.6235C246.531 81.0629 250.586 50.4558 224.309 23.6991C195.099 -6.04487 -3.65888 -12.9499 5.23124 53.4435C8.91877 80.9827 28.7266 92.2171 59.2567 83.3169Z" stroke="#E84649" stroke-width="3" stroke-linecap="round"/>
</svg>
