<svg width="35" height="42" viewBox="0 0 35 42" fill="none" xmlns="http://www.w3.org/2000/svg">
<path d="M6.22222 12.4444L0.999308 12.4444C0.447023 12.4444 0 12.8922 0 13.4444V17.1111V20.2222V25.6667V27.1598C0 27.9031 0.782312 28.3866 1.44721 28.0542L5.66944 25.9431C6.00822 25.7737 6.22222 25.4274 6.22222 25.0486V24.1111V20.2222V18.1111C6.22222 17.5588 6.66936 17.1055 7.22017 17.0653C8.38053 16.9806 10.4184 16.739 12.6084 16.0505C13.2833 15.8384 14 16.3256 14 17.033V17.2828V20.7778C14 21.3301 14.4477 21.7778 15 21.7778H19.2222C19.7745 21.7778 20.2222 21.3301 20.2222 20.7778V18.6667V17.033C20.2222 16.3255 20.939 15.8384 21.6139 16.0505C23.8039 16.739 25.8417 16.9806 27.002 17.0653C27.5529 17.1055 28 17.5588 28 18.1111V20.2222V24.1111V25.0486C28 25.4274 28.214 25.7737 28.5528 25.9431L32.775 28.0542C33.4399 28.3866 34.2222 27.9031 34.2222 27.1598V25.6667V20.2222V17.1111V13.4444C34.2222 12.8922 33.7752 12.4444 33.2229 12.4444L28 12.4444C22.3204 12.4444 19.7129 12.9565 18.1005 9.826C17.7429 9.13189 16.4793 9.13189 16.1218 9.826C14.5093 12.9565 11.9019 12.4444 6.22222 12.4444Z" fill="#D9D9D9"/>
<path d="M11.28 18.083L8.61337 18.5274C8.13118 18.6078 7.77777 19.025 7.77777 19.5138V20.2222V23.3333V25.6667V27.2222V33.4444V36.4896C7.77777 37.281 9.35707 37.8861 10.0487 37.5014C10.855 37.0531 11.9063 36.685 13.2492 36.5834C13.6622 36.5522 14 36.8919 14 37.3061V38.8889V40.7929C14 41.2383 14.6491 41.6 15.0768 41.4754C15.5574 41.3354 16.2211 41.2222 17.1111 41.2222C18.0011 41.2222 18.6649 41.3354 19.1454 41.4754C19.5731 41.6 20.2222 41.2383 20.2222 40.7929V38.8889V37.3061C20.2222 36.8919 20.56 36.5522 20.973 36.5834C22.3159 36.685 23.3672 37.0531 24.1735 37.5014C24.8651 37.8861 26.4444 37.2826 26.4444 36.4912V27.7195C26.4444 27.4048 26.2962 27.1111 26.0444 26.9222L24.4 25.6889C23.8667 25.2889 23.8667 24.4889 24.4 24.0889L26.0444 22.8556C26.2962 22.6667 26.4444 22.3703 26.4444 22.0556V20.2222V20.1652C26.4444 19.7348 26.169 19.3526 25.7607 19.2165L23.094 18.3276C22.4465 18.1118 21.7778 18.5938 21.7778 19.2763V20.2222V21.9375C21.7778 22.3163 21.5638 22.6626 21.225 22.8319L20.4334 23.2278C20.2945 23.2972 20.1414 23.3333 19.9861 23.3333H14H13.4444C12.8922 23.3333 12.4444 22.8856 12.4444 22.3333V20.2222V19.0693C12.4444 18.4514 11.8896 17.9814 11.28 18.083Z" fill="#D9D9D9"/>
<path d="M12.4445 33.3605V26.1667C12.4445 25.8905 12.6683 25.6667 12.9445 25.6667H13.5C13.7762 25.6667 14 25.8905 14 26.1667V31.4688C14 31.8404 14.4131 32.132 14.7786 32.0645C15.2689 31.9739 16.0199 31.8889 17.1111 31.8889C18.2023 31.8889 18.9533 31.9739 19.4437 32.0645C19.8092 32.132 20.2222 31.8404 20.2222 31.4688V26.6667C20.2222 26.2546 20.6926 26.0194 21.0222 26.2667L21.5778 26.6833C21.7037 26.7778 21.7778 26.9259 21.7778 27.0833V33.3605C21.7778 33.7211 21.4002 33.9832 21.0517 33.8909C20.3085 33.694 18.995 33.4444 17.1111 33.4444C15.2272 33.4444 13.9137 33.694 13.1706 33.8909C12.822 33.9832 12.4445 33.7211 12.4445 33.3605Z" fill="#101014"/>
<path d="M7.77777 7.5V13.5C7.77777 13.7761 8.00163 14 8.27777 14H11.9444C12.2206 14 12.4444 13.7767 12.4444 13.5005V10.861C12.4444 10.4468 12.7858 10.1287 13.1889 10.0335C14.1866 9.79766 14.8993 8.97587 15.9786 6.91627C16.1999 6.49406 16.6344 6.22222 17.1111 6.22222C17.5878 6.22222 18.0223 6.49406 18.2436 6.91627C19.3229 8.97587 20.0356 9.79766 21.0333 10.0335C21.4364 10.1287 21.7778 10.4462 21.7778 10.8604V13.5001C21.7778 13.7762 22.0016 14 22.2778 14H25.9444C26.2206 14 26.4444 13.7761 26.4444 13.5V7.5C26.4444 7.22386 26.2211 7 25.945 7H24.1111C22.011 7 19.2809 4.47984 17.6219 1.14068C17.4211 0.736468 16.8011 0.736468 16.6003 1.14068C14.9413 4.47984 12.2112 7 10.1111 7H8.27726C8.00111 7 7.77777 7.22386 7.77777 7.5Z" fill="#D9D9D9"/>
</svg>
