<svg width="88" height="109" viewBox="0 0 88 109" fill="none" xmlns="http://www.w3.org/2000/svg">
<path d="M16 32.8174L0.996642 32.8174C0.444356 32.8174 0 33.2651 0 33.8174V44.8174V52.8174V66.8174V73.1994C0 73.9428 0.782313 74.4263 1.44721 74.0938L15.4472 67.0938C15.786 66.9244 16 66.5781 16 66.1994V62.8174V52.8174V45.8174C16 45.2651 16.4471 44.8136 16.9989 44.7906C19.6125 44.6818 26.9809 44.1313 34.6191 41.345C35.2837 41.1026 36 41.5892 36 42.2967V45.259V55.8174C36 56.3697 36.4477 56.8174 37 56.8174H51C51.5523 56.8174 52 56.3697 52 55.8174V48.8174V42.2945C52 41.587 52.7163 41.1026 53.3809 41.3451C61.0191 44.1313 68.3875 44.6818 71.0011 44.7906C71.5529 44.8136 72 45.2651 72 45.8174V52.8174V62.8174V66.1994C72 66.5781 72.214 66.9244 72.5528 67.0938L86.5528 74.0938C87.2177 74.4263 88 73.9428 88 73.1994V66.8174V52.8174V44.8174V33.8174C88 33.2651 87.5556 32.8174 87.0034 32.8174L72 32.8174C55.1678 32.8174 48.8291 34.5663 44.8065 21.7098C44.5734 20.9646 43.4266 20.9646 43.1935 21.7098C39.1709 34.5663 32.8322 32.8174 16 32.8174Z" fill="#F2BE0D"/>
<path d="M30.8356 47.0114L20.8356 48.6781C20.3534 48.7585 20 49.1757 20 49.6645V52.8174V60.8174V66.8174V70.8174V86.8174V99.6403C20 100.432 21.3561 100.857 21.9013 100.283C24.053 98.0195 28.2079 95.0291 35.2451 94.8281C35.6592 94.8163 36 95.1535 36 95.5678V100.817V107.61C36 108.056 36.608 108.36 37.0039 108.156C38.1334 107.574 40.3104 106.817 44 106.817C47.6896 106.817 49.8666 107.574 50.9961 108.156C51.392 108.36 52 108.056 52 107.61V100.817V95.5678C52 95.1535 52.3408 94.8163 52.7549 94.8281C59.7921 95.0291 63.947 98.0195 66.0987 100.283C66.6439 100.857 68 100.433 68 99.6411V71.3091C68 70.9943 67.8518 70.7062 67.6 70.5174L61.0667 65.6174C60.5333 65.2174 60.5333 64.4174 61.0667 64.0174L67.6 59.1174C67.8518 58.9285 68 58.6321 68 58.3174V52.8174V51.5381C68 51.1077 67.7246 50.7256 67.3162 50.5895L57.3162 47.2561C56.6687 47.0403 56 47.5223 56 48.2048V52.8174V58.1993C56 58.5781 55.786 58.9244 55.4472 59.0938L52.2111 60.7118C52.0723 60.7812 51.9192 60.8174 51.7639 60.8174H36H33C32.4477 60.8174 32 60.3697 32 59.8174V52.8174V47.9978C32 47.3799 31.4451 46.9099 30.8356 47.0114Z" fill="#F2BE0D"/>
<path d="M32 87.803V67.3174C32 67.0412 32.2239 66.8174 32.5 66.8174H35.5C35.7761 66.8174 36 67.0412 36 67.3174V83.0084C36 83.3801 36.4046 83.6533 36.7622 83.552C37.8083 83.2558 40.0274 82.8174 44 82.8174C47.9726 82.8174 50.1917 83.2558 51.2378 83.552C51.5954 83.6533 52 83.3801 52 83.0084V67.8174C52 67.4054 52.4704 67.1702 52.8 67.4174L55.8 69.6674C55.9259 69.7618 56 69.91 56 70.0674V87.803C56 88.1635 55.6263 88.4184 55.284 88.3052C53.8071 87.8169 50.0458 86.8174 44 86.8174C37.9542 86.8174 34.1929 87.8169 32.716 88.3052C32.3737 88.4184 32 88.1635 32 87.803Z" fill="#101014"/>
<path d="M20 19.3174V36.3174C20 36.5935 20.2239 36.8174 20.5 36.8174H31.5C31.7761 36.8174 32 36.5969 32 36.3208V27.5671C32 27.1529 32.3366 26.8215 32.7497 26.7914C36.2662 26.5346 38.2578 24.3017 42 16.8174C44 12.8174 44 12.8174 46 16.8174C49.7422 24.3017 51.7338 26.5346 55.2503 26.7914C55.6634 26.8215 56 27.1516 56 27.5658V36.3199C56 36.5961 56.2239 36.8174 56.5 36.8174H67.5C67.7761 36.8174 68 36.5935 68 36.3174V19.3174C68 19.0412 67.7768 18.8174 67.5007 18.8174H62C56.2325 18.8174 48.6171 11.4255 44.4827 1.97071C44.3019 1.55716 43.6981 1.55716 43.5173 1.97071C39.3829 11.4255 31.7675 18.8174 26 18.8174H20.4993C20.2232 18.8174 20 19.0412 20 19.3174Z" fill="#F2BE0D"/>
</svg>
