<svg width="168" height="24" viewBox="0 0 168 24" fill="none" xmlns="http://www.w3.org/2000/svg">
<path d="M149.828 22.2183C149.434 22.4968 148.913 22.1118 149.064 21.6539L151.261 14.9768C151.331 14.7632 151.25 14.5288 151.063 14.4042L145.378 10.6226C144.965 10.3484 145.16 9.70625 145.654 9.70625H152.756C152.973 9.70625 153.165 9.5663 153.232 9.3598L155.524 2.25566C155.673 1.79372 156.327 1.79372 156.476 2.25566L158.768 9.3598C158.835 9.5663 159.027 9.70625 159.244 9.70625H166.345C166.84 9.70625 167.035 10.3484 166.622 10.6226L160.937 14.4042C160.75 14.5288 160.669 14.7632 160.739 14.9768L162.936 21.6539C163.087 22.1118 162.566 22.4968 162.172 22.2183L156.289 18.0549C156.116 17.9324 155.884 17.9324 155.711 18.0549L149.828 22.2183Z" fill="#E84649"/>
<path d="M113.828 22.2183C113.434 22.4968 112.913 22.1118 113.064 21.6539L115.261 14.9768C115.331 14.7632 115.25 14.5288 115.063 14.4042L109.378 10.6226C108.965 10.3484 109.16 9.70625 109.654 9.70625H116.756C116.973 9.70625 117.165 9.5663 117.232 9.3598L119.524 2.25566C119.673 1.79372 120.327 1.79372 120.476 2.25566L122.768 9.3598C122.835 9.5663 123.027 9.70625 123.244 9.70625H130.345C130.84 9.70625 131.035 10.3484 130.622 10.6226L124.937 14.4042C124.75 14.5288 124.669 14.7632 124.739 14.9768L126.936 21.6539C127.087 22.1118 126.566 22.4968 126.172 22.2183L120.289 18.0549C120.116 17.9324 119.884 17.9324 119.711 18.0549L113.828 22.2183Z" fill="#E84649"/>
<path d="M77.8277 22.2183C77.4341 22.4968 76.9132 22.1118 77.0639 21.6539L79.261 14.9768C79.3313 14.7632 79.2503 14.5288 79.0629 14.4042L73.3776 10.6226C72.9655 10.3484 73.1595 9.70625 73.6545 9.70625H80.756C80.9729 9.70625 81.1652 9.5663 81.2318 9.3598L83.5242 2.25566C83.6732 1.79372 84.3268 1.79372 84.4758 2.25566L86.7682 9.3598C86.8348 9.5663 87.0271 9.70625 87.244 9.70625H94.3455C94.8405 9.70625 95.0345 10.3484 94.6224 10.6226L88.9371 14.4042C88.7498 14.5288 88.6687 14.7632 88.739 14.9768L90.9361 21.6539C91.0868 22.1118 90.5659 22.4968 90.1723 22.2183L84.2888 18.0549C84.1157 17.9324 83.8843 17.9324 83.7112 18.0549L77.8277 22.2183Z" fill="#E84649"/>
<path d="M41.8277 22.2183C41.4341 22.4968 40.9132 22.1118 41.0639 21.6539L43.261 14.9768C43.3313 14.7632 43.2503 14.5288 43.0629 14.4042L37.3776 10.6226C36.9655 10.3484 37.1595 9.70625 37.6545 9.70625H44.756C44.9729 9.70625 45.1652 9.5663 45.2318 9.3598L47.5242 2.25566C47.6732 1.79372 48.3268 1.79372 48.4758 2.25566L50.7682 9.3598C50.8348 9.5663 51.0271 9.70625 51.244 9.70625H58.3455C58.8405 9.70625 59.0345 10.3484 58.6224 10.6226L52.9371 14.4042C52.7498 14.5288 52.6687 14.7632 52.739 14.9768L54.9361 21.6539C55.0868 22.1118 54.5659 22.4968 54.1723 22.2183L48.2888 18.0549C48.1157 17.9324 47.8843 17.9324 47.7112 18.0549L41.8277 22.2183Z" fill="#E84649"/>
<path d="M5.82768 22.2183C5.43412 22.4968 4.91322 22.1118 5.06391 21.6539L7.26098 14.9768C7.33129 14.7632 7.25025 14.5288 7.06295 14.4042L1.37758 10.6226C0.965454 10.3484 1.15953 9.70625 1.6545 9.70625H8.75595C8.97294 9.70625 9.16516 9.5663 9.23179 9.3598L11.5242 2.25566C11.6732 1.79372 12.3268 1.79372 12.4758 2.25566L14.7682 9.3598C14.8348 9.5663 15.0271 9.70625 15.244 9.70625H22.3455C22.8405 9.70625 23.0345 10.3484 22.6224 10.6226L16.9371 14.4042C16.7498 14.5288 16.6687 14.7632 16.739 14.9768L18.9361 21.6539C19.0868 22.1118 18.5659 22.4968 18.1723 22.2183L12.2888 18.0549C12.1157 17.9324 11.8843 17.9324 11.7112 18.0549L5.82768 22.2183Z" fill="#E84649"/>
</svg>
