<svg width="21" height="28" viewBox="0 0 21 28" fill="none" xmlns="http://www.w3.org/2000/svg">
<path d="M6.18748 8H15.4375V18.6667L9.64581 24.6667L8.83331 24.0208C8.74998 23.9514 8.68748 23.8542 8.64581 23.7292C8.60415 23.6042 8.58331 23.4514 8.58331 23.2708V23.0625L9.52081 18.6667H3.29165C2.95831 18.6667 2.66665 18.5417 2.41665 18.2917C2.16665 18.0417 2.04165 17.75 2.04165 17.4167V15.7117C2.04165 15.6122 2.03123 15.5104 2.0104 15.4062C1.98956 15.3021 1.99998 15.2014 2.04165 15.1042L4.66665 9.0625C4.78995 8.76736 4.99547 8.51649 5.28321 8.3099C5.57093 8.1033 5.87235 8 6.18748 8ZM14.1875 9.25H5.91665L3.29165 15.4792V17.4167H11.0625L9.95831 22.6042L14.1875 18.1458V9.25ZM15.4375 18.6667V17.4167H18.2083V9.25H15.4375V8H19.4583V18.6667H15.4375Z" fill="#D9D9D9"/>
</svg>
