<svg width="20" height="20" viewBox="0 0 20 20" fill="none" xmlns="http://www.w3.org/2000/svg">
<path d="M4.97915 2.5H14.7083V13.1667L8.91665 19.1667L8.22915 18.625C8.07637 18.5139 7.97567 18.3889 7.92706 18.25C7.87845 18.1111 7.85415 17.9514 7.85415 17.7708V17.5625L8.79165 13.1667H2.08331C1.76387 13.1667 1.47567 13.0382 1.21873 12.7812C0.961785 12.5243 0.833313 12.2361 0.833313 11.9167V10.2083C0.833313 10.0556 0.850674 9.87847 0.885396 9.67708C0.920119 9.47569 0.972202 9.29861 1.04165 9.14583L3.45831 3.5625C3.58331 3.27083 3.78817 3.02083 4.0729 2.8125C4.35762 2.60417 4.6597 2.5 4.97915 2.5ZM15.9583 13.1667V2.5H18.3333V13.1667H15.9583Z" fill="#E84649"/>
</svg>
