<svg width="21" height="28" viewBox="0 0 21 28" fill="none" xmlns="http://www.w3.org/2000/svg">
<path d="M15.2708 18.6667H6.02083V8L11.8125 2L12.625 2.64583C12.7083 2.71528 12.7708 2.8125 12.8125 2.9375C12.8542 3.0625 12.875 3.21528 12.875 3.39583V3.60417L11.9375 8H18.1667C18.5 8 18.7917 8.125 19.0417 8.375C19.2917 8.625 19.4167 8.91667 19.4167 9.25V10.955C19.4167 11.0544 19.4271 11.1562 19.4479 11.2604C19.4688 11.3646 19.4583 11.4653 19.4167 11.5625L16.7917 17.6042C16.6684 17.8993 16.4628 18.1502 16.1751 18.3568C15.8874 18.5634 15.586 18.6667 15.2708 18.6667ZM7.27083 17.4167H15.5417L18.1667 11.1875V9.25H10.3958L11.5 4.0625L7.27083 8.52083V17.4167ZM6.02083 8V9.25H3.25V17.4167H6.02083V18.6667H2V8H6.02083Z" fill="#D9D9D9"/>
</svg>
