<svg width="20" height="20" viewBox="0 0 20 20" fill="none" xmlns="http://www.w3.org/2000/svg">
<path d="M15.0209 17.5H5.29169V6.83333L11.0834 0.833332L11.7709 1.375C11.9236 1.48611 12.0243 1.61111 12.0729 1.75C12.1215 1.88889 12.1459 2.04861 12.1459 2.22917V2.4375L11.2084 6.83333H17.9167C18.2361 6.83333 18.5243 6.9618 18.7813 7.21875C19.0382 7.47569 19.1667 7.76389 19.1667 8.08333V9.79166C19.1667 9.94444 19.1493 10.1215 19.1146 10.3229C19.0799 10.5243 19.0278 10.7014 18.9584 10.8542L16.5417 16.4375C16.4167 16.7292 16.2118 16.9792 15.9271 17.1875C15.6424 17.3958 15.3403 17.5 15.0209 17.5ZM4.04169 6.83333V17.5H1.66669V6.83333H4.04169Z" fill="#E84649"/>
</svg>
