<svg width="20" height="21" viewBox="0 0 20 21" fill="none" xmlns="http://www.w3.org/2000/svg">
<path d="M14.9166 18.281H5.66659V7.61438L11.4583 1.61438L12.2708 2.26021C12.3541 2.32966 12.4166 2.42688 12.4583 2.55188C12.4999 2.67688 12.5208 2.82966 12.5208 3.01021V3.21855L11.5833 7.61438H17.8124C18.1458 7.61438 18.4374 7.73938 18.6874 7.98938C18.9374 8.23938 19.0624 8.53105 19.0624 8.86438V10.5694C19.0624 10.6688 19.0728 10.7706 19.0937 10.8748C19.1145 10.979 19.1041 11.0797 19.0624 11.1769L16.4374 17.2185C16.3141 17.5137 16.1086 17.7646 15.8209 17.9711C15.5331 18.1777 15.2317 18.281 14.9166 18.281ZM6.91659 17.031H15.1874L17.8124 10.8019V8.86438H10.0416L11.1458 3.67688L6.91659 8.13521V17.031ZM5.66659 7.61438V8.86438H2.89575V17.031H5.66659V18.281H1.64575V7.61438H5.66659Z" fill="#D9D9D9"/>
</svg>
