<svg width="19" height="18" viewBox="0 0 19 18" fill="none" xmlns="http://www.w3.org/2000/svg">
<path d="M13.9166 17.281H4.66659V6.61438L10.4583 0.61438L11.2708 1.26021C11.3541 1.32966 11.4166 1.42688 11.4583 1.55188C11.4999 1.67688 11.5208 1.82966 11.5208 2.01021V2.21855L10.5833 6.61438H16.8124C17.1458 6.61438 17.4374 6.73938 17.6874 6.98938C17.9374 7.23938 18.0624 7.53105 18.0624 7.86438V9.56936C18.0624 9.66882 18.0728 9.77063 18.0937 9.8748C18.1145 9.97896 18.1041 10.0797 18.0624 10.1769L15.4374 16.2185C15.3141 16.5137 15.1086 16.7646 14.8209 16.9711C14.5331 17.1777 14.2317 17.281 13.9166 17.281ZM5.91659 16.031H14.1874L16.8124 9.80188V7.86438H9.04159L10.1458 2.67688L5.91659 7.13521V16.031ZM4.66659 6.61438V7.86438H1.89575V16.031H4.66659V17.281H0.645752V6.61438H4.66659Z" fill="#FF5151"/>
</svg>
