<svg width="14" height="14" viewBox="0 0 14 14" fill="none" xmlns="http://www.w3.org/2000/svg">
<path d="M6.69471 13.972V7.48639H6.48717C5.70381 7.48639 4.96456 7.34069 4.26944 7.04929C3.57431 6.7579 2.95806 6.33977 2.42067 5.79489C1.89396 5.25002 1.48904 4.61773 1.20592 3.89804C0.922806 3.17833 0.78125 2.42814 0.78125 1.64746V0.810913H1.57371C2.32997 0.810913 3.06263 0.962837 3.77167 1.26668C4.48069 1.57053 5.1063 1.99502 5.64848 2.54014C6.11092 3.00645 6.47972 3.53667 6.75485 4.13081C7.02999 4.72496 7.20813 5.34456 7.28927 5.9896C7.42416 5.73087 7.57701 5.48148 7.74781 5.24146C7.9186 5.00143 8.11431 4.77334 8.33494 4.55718C8.87674 4.01352 9.50395 3.58976 10.2166 3.28591C10.9292 2.98207 11.6711 2.83014 12.4423 2.83014H13.2532V3.66668C13.2532 4.44635 13.1002 5.19557 12.7941 5.91433C12.4881 6.63308 12.0737 7.26561 11.5509 7.81193C11.0143 8.35827 10.3916 8.77366 9.68294 9.05812C8.97424 9.34257 8.24233 9.48479 7.48719 9.48479H7.32373V13.972H6.69471Z" fill="#0C2B24"/>
</svg>
